<svg width="876" height="936" viewBox="0 0 876 936" fill="none" xmlns="http://www.w3.org/2000/svg">
<path d="M400 775C607.107 775 775 607.107 775 400C775 192.893 607.107 25 400 25C192.893 25 25 192.893 25 400C25 607.107 192.893 775 400 775Z" fill="#4FD1D9"/>
<path d="M400 200C437.5 200 466.25 213.75 487.5 240C512.5 272.5 525 325 525 400C525 473.75 512.5 527.5 487.5 560C466.25 586.25 437.5 600 400 600C362.5 600 332.5 585 310 556.25C286.25 526.25 275 475 275 398.75C275 325 287.5 272.5 312.5 240C333.75 213.75 362.5 200 400 200ZM400 262.5C391.25 262.5 382.5 265 376.25 271.25C370 277.5 363.75 287.5 360 302.5C355 322.5 352.5 355 352.5 400C352.5 446.25 355 477.5 358.75 495C363.75 512.5 368.75 523.75 376.25 528.75C383.75 535 391.25 537.5 400 537.5C408.75 537.5 417.5 535 423.75 528.75C431.25 522.5 436.25 512.5 440 497.5C445 478.75 447.5 446.25 447.5 400C447.5 353.75 445 322.5 441.25 305C436.25 287.5 431.25 276.25 423.75 270C416.25 265 408.75 262.5 400 262.5Z" fill="white"/>
<g clip-path="url(#clip0_233_2376)">
<path d="M876 461H400V936H876V461Z" fill="white"/>
<path fill-rule="evenodd" clip-rule="evenodd" d="M750.029 586.706C759.323 595.981 759.323 611.019 750.029 620.294L559.629 810.294C550.335 819.568 535.265 819.568 525.971 810.294C516.676 801.019 516.676 785.981 525.971 776.706L716.371 586.706C725.665 577.431 740.735 577.431 750.029 586.706ZM566.6 651.238C553.456 651.238 542.8 640.604 542.8 627.488V627.25C542.8 614.133 553.456 603.5 566.6 603.5C579.744 603.5 590.4 614.133 590.4 627.25V627.488C590.4 640.604 579.744 651.238 566.6 651.238ZM685.6 769.988C685.6 783.105 696.255 793.738 709.4 793.738C722.545 793.738 733.2 783.105 733.2 769.988V769.75C733.2 756.633 722.545 746 709.4 746C696.255 746 685.6 756.633 685.6 769.75V769.988ZM400 698.5C400 567.332 506.556 461 638 461C769.443 461 876 567.332 876 698.5C876 829.666 769.443 936 638 936C506.556 936 400 829.666 400 698.5Z" fill="#FCD5DB"/>
</g>
<defs>
<clipPath id="clip0_233_2376">
<rect x="400" y="461" width="476" height="475" rx="237.5" fill="white"/>
</clipPath>
</defs>
</svg>
